<?xml version="1.0" encoding="UTF-8" standalone="no"?>
<svg
   t="1736925630247"
   class="icon"
   viewBox="0 0 1024 1024"
   version="1.1"
   p-id="3258"
   width="20"
   height="20"
   id="svg1"
   sodipodi:docname="about.svg"
   inkscape:version="1.4 (86a8ad7, 2024-10-11)"
   xmlns:inkscape="http://www.inkscape.org/namespaces/inkscape"
   xmlns:sodipodi="http://sodipodi.sourceforge.net/DTD/sodipodi-0.dtd"
   xmlns="http://www.w3.org/2000/svg"
   xmlns:svg="http://www.w3.org/2000/svg">
  <defs
     id="defs1" />
  <sodipodi:namedview
     id="namedview1"
     pagecolor="#ffffff"
     bordercolor="#000000"
     borderopacity="0.25"
     inkscape:showpageshadow="2"
     inkscape:pageopacity="0.0"
     inkscape:pagecheckerboard="0"
     inkscape:deskcolor="#d1d1d1"
     inkscape:zoom="47.9"
     inkscape:cx="10"
     inkscape:cy="10"
     inkscape:window-width="1920"
     inkscape:window-height="1202"
     inkscape:window-x="-8"
     inkscape:window-y="-8"
     inkscape:window-maximized="1"
     inkscape:current-layer="svg1" />
  <path
     d="M 512,0 C 229.22731,0 0,229.22731 0,511.99819 0,794.77269 229.22731,1024 512,1024 794.77269,1024 1024,794.77269 1024,511.99819 1024,229.22731 794.77269,0 512,0 Z M 203.8409,683.97378 v -7.45428 c 0,-88.39278 69.21974,-162.93364 157.60709,-166.12884 -48.98467,-4.25907 -88.38734,-45.79309 -88.38734,-95.84344 0,-53.24553 42.59607,-95.84341 95.84343,-95.84341 12.779,0 24.49413,3.1952 36.20747,7.45608 -8.51994,17.03806 -13.84647,36.20566 -13.84647,56.44073 0,39.40269 18.10372,74.54449 46.85693,97.97115 -14.90853,15.97422 -37.27313,26.62188 -60.69981,28.7514 13.84288,0 26.62188,2.13495 39.40268,6.3886 -59.63595,34.07975 -101.16636,96.9091 -108.62243,168.26019 H 203.8409 Z M 722.45348,705.2709 H 317.78625 v -5.32472 c 0,-108.62063 85.19215,-197.01161 191.68504,-202.33452 C 449.83535,492.28872 401.91454,442.23658 401.91454,380.4711 A 116.80279,116.80279 0 0 1 519.05509,263.33054 116.8046,116.8046 0 0 1 636.19565,380.4711 c 0,61.76548 -46.85514,111.81762 -106.49109,117.14056 107.55495,5.32111 192.74892,93.71389 192.74892,202.33452 z m 99.03861,-22.361 h -90.51688 c -7.45246,-72.41495 -51.1142,-136.31178 -112.87968,-170.3879 9.5856,-2.13134 20.23326,-4.26088 29.81707,-4.26088 -21.29532,-2.12953 -40.46474,-10.64946 -55.37507,-23.42666 33.01226,-23.43029 54.3112,-61.76729 54.3112,-104.36336 0,-22.3628 -5.32473,-42.59607 -14.91034,-60.69801 7.45789,-2.13134 15.97421,-3.1952 24.49234,-3.1952 53.24555,0 95.84523,42.59607 95.84523,95.84342 0,50.05035 -38.33882,91.58256 -87.3253,95.84161 87.3253,4.26088 157.60892,79.86742 157.60892,168.25839 -0.002,2.12771 -0.002,7.45246 -1.06749,6.38859 z"
     fill="#cc0000"
     p-id="3259"
     id="path1"
     style="stroke-width:1" />
</svg>
