<?xml version="1.0" encoding="UTF-8" standalone="no"?>
<svg
   t="1741940447751"
   class="icon"
   viewBox="0 0 1024 1024"
   version="1.1"
   p-id="4183"
   width="20"
   height="20"
   id="svg6"
   sodipodi:docname="video.svg"
   inkscape:version="1.4 (86a8ad7, 2024-10-11)"
   xmlns:inkscape="http://www.inkscape.org/namespaces/inkscape"
   xmlns:sodipodi="http://sodipodi.sourceforge.net/DTD/sodipodi-0.dtd"
   xmlns="http://www.w3.org/2000/svg"
   xmlns:svg="http://www.w3.org/2000/svg">
  <defs
     id="defs6" />
  <sodipodi:namedview
     id="namedview6"
     pagecolor="#ffffff"
     bordercolor="#000000"
     borderopacity="0.25"
     inkscape:showpageshadow="2"
     inkscape:pageopacity="0.0"
     inkscape:pagecheckerboard="0"
     inkscape:deskcolor="#d1d1d1"
     inkscape:zoom="47.9"
     inkscape:cx="10"
     inkscape:cy="10"
     inkscape:window-width="1920"
     inkscape:window-height="1202"
     inkscape:window-x="-8"
     inkscape:window-y="-8"
     inkscape:window-maximized="1"
     inkscape:current-layer="svg6" />
  <path
     d="m 512.03239,577.50052 c 73.26419,0 132.86017,-57.97059 132.86017,-129.23659 0,-71.26601 -59.59598,-129.23658 -132.86017,-129.23658 -73.26418,0 -132.92495,57.90756 -132.92495,129.17357 0,71.32901 59.66077,129.2996 132.92495,129.2996 z"
     fill="#cc0000"
     p-id="4184"
     id="path1"
     style="stroke-width:1.24783" />
  <path
     d="M 864.7499,967.98281 706.10799,854.75112 C 863.58388,783.48511 972.8,628.28778 972.8,448.20092 972.8,200.62874 766.48131,1.1572429e-4 512.03239,1.1572429e-4 257.51869,1.1572429e-4 51.26477,200.69175 51.26477,448.20092 c 0,182.41829 112.13115,339.31693 272.91073,409.25969 L 171.88186,968.10881 C 147.3309,985.94101 160.28656,1024 190.99145,1024 h 654.97276 c 30.70489,0 43.66053,-38.31099 18.78569,-56.01719 z M 512.03239,209.7024 c 135.19219,0 245.18563,106.99352 245.18563,238.49852 0,131.505 -109.99344,238.49853 -245.18563,238.49853 -135.25697,0.063 -245.25041,-106.93052 -245.25041,-238.49853 0,-131.56801 109.99344,-238.49852 245.25041,-238.49852 z"
     fill="#cc0000"
     p-id="4185"
     id="path2"
     style="stroke-width:1.24783" />
  <path
     d="m 858.85509,353.55765 c 0,-87.01889 -17.16624,-170.06804 -48.00069,-246.37496 C 730.39982,40.390496 626.10687,1.1572429e-4 512.03239,1.1572429e-4 257.51869,1.1572429e-4 51.26477,200.69175 51.26477,448.20092 c 0,182.41829 112.13115,339.31693 272.91073,409.25969 L 171.88186,968.10881 C 147.3309,985.94101 160.28656,1024 190.99145,1024 h 42.10584 c 351.09805,-32.63999 625.7578,-320.28745 625.7578,-670.44235 z m -592.07311,94.64327 c 0,-131.505 109.99344,-238.49852 245.18563,-238.49852 135.19219,0 245.18563,106.99352 245.18563,238.49852 0,131.505 -109.99344,238.49853 -245.18563,238.49853 -135.19219,0.063 -245.18563,-106.93052 -245.18563,-238.49853 z"
     fill="#cc0000"
     p-id="4186"
     id="path3"
     style="stroke-width:1.24783" />
  <path
     d="m 617.62091,370.12967 c -24.29183,-31.00166 -62.51099,-51.10232 -105.58852,-51.10232 -73.26418,0 -132.86018,57.97057 -132.86018,129.23658 0,61.49923 44.3731,112.97962 103.58041,125.95999 56.74575,-59.10479 102.73828,-128.10239 134.86829,-204.09425 z"
     fill="#cc0000"
     p-id="4187"
     id="path4"
     style="stroke-width:1.24783" />
  <path
     d="m 266.78198,448.20092 c 0,-131.505 109.99344,-238.49852 245.18563,-238.49852 53.05338,0 102.22006,16.50901 142.38256,44.48611 a 696.04217,677.05856 0 0 0 15.02855,-139.88552 c 0,-30.371554 -2.26723,-60.239004 -6.28348,-89.539354 A 459.3425,446.81455 0 0 0 511.96761,1.1572429e-4 C 257.45391,1.1572429e-4 51.2,200.69175 51.2,448.20092 c 0,120.47799 48.90757,229.80294 128.45524,310.33164 A 691.57247,672.71077 0 0 0 389.99019,655.00466 C 316.46689,613.79513 266.78198,536.54305 266.78198,448.20092 Z"
     fill="#cc0000"
     p-id="4188"
     id="path5"
     style="stroke-width:1.24783" />
  <path
     d="M 380.66213,247.0052 A 688.33356,669.5602 0 0 0 483.14129,1.0083057 C 242.10147,15.500946 51.2,210.14347 51.2,448.20092 c 0,18.6514 1.23079,37.05076 3.49803,55.13506 A 691.88341,673.01322 0 0 0 284.33687,359.66976 c 19.30392,-46.62851 53.24772,-86.0107 96.32526,-112.66456 z"
     fill="#cc0000"
     p-id="4189"
     id="path6"
     style="stroke-width:1.24783" />
</svg>
