<?xml version="1.0" encoding="UTF-8" standalone="no"?>
<svg
   t="1733903797306"
   class="icon"
   viewBox="0 0 1024 1024"
   version="1.1"
   p-id="8840"
   width="20"
   height="20"
   id="svg2"
   sodipodi:docname="chat.svg"
   inkscape:version="1.4 (86a8ad7, 2024-10-11)"
   xmlns:inkscape="http://www.inkscape.org/namespaces/inkscape"
   xmlns:sodipodi="http://sodipodi.sourceforge.net/DTD/sodipodi-0.dtd"
   xmlns="http://www.w3.org/2000/svg"
   xmlns:svg="http://www.w3.org/2000/svg">
  <defs
     id="defs2" />
  <sodipodi:namedview
     id="namedview2"
     pagecolor="#ffffff"
     bordercolor="#000000"
     borderopacity="0.25"
     inkscape:showpageshadow="2"
     inkscape:pageopacity="0.0"
     inkscape:pagecheckerboard="0"
     inkscape:deskcolor="#d1d1d1"
     inkscape:zoom="29.9375"
     inkscape:cx="16"
     inkscape:cy="16"
     inkscape:window-width="1920"
     inkscape:window-height="1202"
     inkscape:window-x="-8"
     inkscape:window-y="-8"
     inkscape:window-maximized="1"
     inkscape:current-layer="svg2" />
  <path
     d="m 805.87497,285.77529 56.83369,-71.35947 c 8.04611,2.53047 16.60309,4.3018 25.54322,4.3018 46.74411,0 84.54812,-37.45106 84.54812,-83.7588 C 972.8,88.651072 934.99599,51.2 888.25188,51.2 c -46.74411,0 -84.54812,37.451072 -84.54812,83.75882 0,15.94199 4.7255,30.61876 12.51619,43.27116 l -57.98314,72.75123 C 686.97117,205.55913 602.6785,178.73609 512,178.73609 c -90.55076,0 -174.97117,26.82304 -246.23681,72.24512 l -57.98314,-72.75123 c 7.79068,-12.6524 12.51619,-27.32917 12.51619,-43.27116 C 220.29624,88.651072 182.49223,51.2 135.74811,51.2 89.004,51.2 51.2,88.651072 51.2,134.95882 c 0,46.30774 37.804,83.7588 84.54811,83.7588 8.94013,0 17.49712,-1.77133 25.54323,-4.3018 l 56.83369,71.35947 C 118.63414,369.028 55.031488,493.14793 55.031488,631.43856 v 309.85699 c 0,10.62805 0.894016,21.00298 1.660304,31.50445 H 967.3082 c 0.76635,-10.50147 1.66032,-20.8764 1.66032,-31.50445 V 631.43856 c 0,-138.29063 -63.60267,-262.41056 -163.09355,-345.66327 z m 86.2084,373.11893 c 0,60.7315 -50.06475,110.32884 -111.36851,110.32884 H 243.28514 c -61.30376,0 -111.3685,-49.59734 -111.3685,-110.32884 0,-60.73145 50.06474,-110.32882 111.3685,-110.32882 h 537.42973 c 61.30375,0 111.36849,49.59737 111.3685,110.32882 z"
     fill="#cc0000"
     p-id="8841"
     id="path1"
     style="stroke-width:1.27118" />
  <path
     d="m 298.58625,576.52718 c -25.54324,0 -46.4887,20.74993 -46.4887,46.0547 v 72.49818 c 0,25.30479 20.94546,46.05469 46.4887,46.05469 25.54324,0 46.48872,-20.7499 46.48872,-46.05469 v -72.49818 c 0.12767,-25.30477 -20.81777,-46.0547 -46.48872,-46.0547 z m 426.8275,-0.75915 c -25.54324,0 -46.48872,20.74994 -46.48872,46.0547 v 72.49818 c 0,25.30481 20.94548,46.05471 46.48872,46.05471 25.54322,0 46.4887,-20.7499 46.4887,-46.05471 v -72.49818 c 0,-25.30476 -20.94548,-46.0547 -46.4887,-46.0547 z"
     fill="#cc0000"
     p-id="8842"
     id="path2"
     style="stroke-width:1.27118" />
</svg>
