<?xml version="1.0" encoding="UTF-8" standalone="no"?>
<svg
   t="1731373391308"
   class="icon"
   viewBox="0 0 1024 1024"
   version="1.1"
   p-id="3649"
   width="20"
   height="20"
   id="svg1"
   sodipodi:docname="dh.svg"
   inkscape:version="1.4 (86a8ad7, 2024-10-11)"
   xmlns:inkscape="http://www.inkscape.org/namespaces/inkscape"
   xmlns:sodipodi="http://sodipodi.sourceforge.net/DTD/sodipodi-0.dtd"
   xmlns="http://www.w3.org/2000/svg"
   xmlns:svg="http://www.w3.org/2000/svg">
  <defs
     id="defs1" />
  <sodipodi:namedview
     id="namedview1"
     pagecolor="#ffffff"
     bordercolor="#000000"
     borderopacity="0.25"
     inkscape:showpageshadow="2"
     inkscape:pageopacity="0.0"
     inkscape:pagecheckerboard="0"
     inkscape:deskcolor="#d1d1d1"
     inkscape:zoom="26.07"
     inkscape:cx="5.331799"
     inkscape:cy="10.510165"
     inkscape:window-width="1920"
     inkscape:window-height="1202"
     inkscape:window-x="-8"
     inkscape:window-y="-8"
     inkscape:window-maximized="1"
     inkscape:current-layer="svg1" />
  <path
     d="m 111.3043,102.41298 h 5.76888 L 253.60296,280.2389 H 51.211947 V 169.16445 C 50.545532,131.99632 77.844059,101.67271 111.3043,102.41298 Z m 652.84319,0 h 148.06753 c 33.46019,-0.74021 60.7587,29.58338 60.09225,66.75147 V 280.2389 h -72.1107 z m -310.95783,177.82592 0.40061,0.53402 v -0.53402 z m 0,0 L 317.54121,102.41298 H 163.22407 L 299.27312,280.2389 Z m 200.46805,0 0.40061,0.53402 v -0.53402 z m 0,0 L 518.00926,102.41298 H 363.69214 L 499.74119,280.2389 Z m 200.46803,0 0.40062,0.53402 v -0.53402 z m 0,0 L 717.99657,102.41298 H 563.67943 L 699.7285,280.2389 Z M 111.3043,921.58702 C 77.844063,922.32729 50.545537,892.00369 51.211947,854.83556 V 325.09589 H 972.78805 v 529.73967 c 0.66645,37.1681 -26.63206,67.49169 -60.09225,66.75146 z"
     p-id="3650"
     fill="#bfbfbf"
     id="path1"
     style="fill:#cc0000;fill-opacity:1;fill-rule:nonzero;stroke-width:0.98959"
     sodipodi:nodetypes="cccccccccccccccccccccccccccccccccccccccccccccc" />
  <path
     d="m 499.28822,578.6444 a 114.12607,115.62539 0 0 1 -68.20659,-22.89438 v 103.69982 c 0,52.94421 -40.59023,95.83682 -90.6748,95.83682 -50.08457,0 -90.67481,-42.89261 -90.67481,-95.83682 0,-52.95735 40.59024,-95.84996 90.67481,-95.84996 5.00587,0 9.86945,0.44558 14.61662,1.27123 v 54.923 a 39.15444,39.668826 0 0 0 -14.22857,-2.6996 c -22.35179,0 -40.48676,19.13325 -40.48676,42.76157 0,23.6152 18.13497,42.77473 40.48676,42.77473 22.31299,0 40.43501,-19.15953 40.43501,-42.77473 V 453.87177 H 431.806 c 0,39.59021 30.37152,71.68434 67.83147,71.68434 v 53.0621 l -0.34925,0.0259"
     fill="#cc0000"
     p-id="8070"
     id="path1-8"
     style="fill:#ffffff;fill-opacity:1;stroke-width:0.292434" />
  <path
     d="m 494.74908,687.30554 c 7.86643,1.77924 15.88327,2.87495 23.95584,3.24924 16.96965,0.49363 33.96715,0.20073 50.9535,0.22242 l 7.75501,0.0163 c -8.70766,16.52287 -17.18134,31.4781 -24.49624,46.94318 -3.5488,7.4966 -8.01126,9.81284 -16.31225,9.51994 -18.55185,-0.6672 -37.10368,0.0867 -55.58311,-0.29291 -6.95276,-0.14647 -13.91109,-1.82807 -22.02823,-2.96179 1.29808,-2.95629 1.92761,-4.63789 2.76328,-6.2164 8.30098,-15.69296 16.76909,-31.31538 24.87508,-47.0951 1.97218,-3.85136 4.02791,-4.23108 8.11712,-3.38485 z M 759.59478,467.3278 c 4.13935,0 5.79399,0.97639 5.71599,5.35935 a 1405.372,1368.3719 0 0 0 0,45.15314 c 0.0668,4.51857 -1.52092,5.85841 -6.03353,5.74991 -10.41801,-0.23868 -20.8193,-0.0542 -31.93927,-0.0542 v 166.79101 c 2.56273,0.14648 4.98616,0.40685 7.40959,0.41768 l 21.73854,0.0434 c 7.24245,0.0103 14.4849,-0.0103 21.7274,-0.10848 4.51261,-0.0705 6.01676,1.42121 5.96109,5.82587 -0.22283,15.04741 -0.22283,30.10026 0,45.15312 0.0668,4.20938 -1.32592,5.48412 -5.62684,5.47325 -62.95929,-0.10848 -125.93528,-0.14647 -188.91684,-0.1031 -1.48192,0 -2.96941,-0.26039 -4.84688,-0.43938 0.2117,-1.00897 0.5014,-1.99623 0.86909,-2.95633 8.44026,-16.49035 16.76909,-33.03491 25.50462,-49.35168 1.0028,-1.83344 4.52374,-3.3089 6.90262,-3.39026 15.0699,-0.30377 30.13979,-0.16275 45.21525,-0.17903 h 6.2118 c 0.18384,-2.53861 0.4624,-4.51311 0.4624,-6.56355 0,-51.15259 -0.0779,-102.31057 0.13929,-153.51196 0,-5.64686 -1.39279,-7.64848 -7.39289,-7.28505 a 149.36186,145.42952 0 0 1 -9.95559,0.23326 l -9.97232,-0.0868 c -1.66019,0 -3.32039,0.006 -4.97502,0.0434 -4.15048,0.11397 -5.89425,-0.9764 -5.79953,-5.34851 0.20612,-15.22643 0.20612,-30.45828 0,-45.70642 0,-3.91646 1.25349,-5.1695 5.30927,-5.15865 40.76392,0.10848 81.52784,0.10848 122.28619,0 z M 534.73862,448.93891 c 14.48492,0.23867 28.981,0.076 43.47148,0.076 h 7.39846 c -1.26466,2.95091 -1.99447,4.9688 -2.9527,6.86736 -10.84142,21.19876 -21.7441,42.37582 -32.46851,63.60711 -1.1588,2.31624 -2.40673,4.88743 -2.4513,7.36098 0,1.51342 1.88861,3.56929 3.47639,4.36668 0.78552,0.40684 3.69365,-1.18252 4.07805,-2.35963 1.63792,-4.96337 5.05302,-5.64143 9.80519,-5.64143 14.49607,0.26037 28.98656,0.0814 43.47706,0.1031 1.8719,0 3.74937,0.15731 6.29537,0.28207 -0.86911,2.11011 -1.36493,3.66693 -2.10589,5.09899 -14.2008,27.77318 -28.42388,55.53551 -42.66367,83.29786 -0.42898,0.83537 -0.85796,1.68158 -1.25351,2.52779 -3.47637,7.26877 -1.61562,10.6482 6.71321,11.15267 7.11432,0.43939 14.29551,0.16274 21.43769,0.22783 1.22007,0.0922 2.43458,0.24952 3.63794,0.46108 -1.00837,2.33794 -1.74932,4.38296 -2.74657,6.29236 -6.28423,12.06398 -12.51274,24.17678 -19.06995,36.1214 -1.22565,1.90943 -3.25354,3.19504 -5.54327,3.49881 -17.76075,0.24406 -35.54378,0.21696 -53.33239,0 a 32.462945,31.608276 0 0 1 -10.19514,-1.79011 c -11.75509,-3.94355 -16.65767,-12.66065 -12.11163,-23.94893 5.88867,-14.67314 12.964,-28.89605 19.71064,-43.23287 3.60452,-7.77866 7.72158,-15.40002 12.16175,-24.14965 -7.74385,0 -14.44592,0.12476 -21.14799,0 -5.00842,-0.11934 -10.13387,0 -14.96404,-1.04692 -14.51834,-3.14076 -20.26774,-12.422 -15.07545,-25.96143 4.8803,-12.8234 10.9584,-25.26708 17.09221,-37.60228 10.08374,-20.32 20.75244,-40.34707 30.9086,-60.61825 1.89975,-3.79711 4.17834,-5.07186 8.41239,-4.99049 z"
     fill="#cc0000"
     p-id="12960"
     id="path1-1"
     style="fill:#ffffff;fill-opacity:1;stroke-width:0.300634" />
</svg>
