<?xml version="1.0" encoding="UTF-8" standalone="no"?>
<svg
   t="1741313346643"
   class="icon"
   viewBox="0 0 1024 1024"
   version="1.1"
   p-id="3450"
   width="20"
   height="20"
   id="svg1"
   sodipodi:docname="p2v.svg"
   inkscape:version="1.4 (86a8ad7, 2024-10-11)"
   xmlns:inkscape="http://www.inkscape.org/namespaces/inkscape"
   xmlns:sodipodi="http://sodipodi.sourceforge.net/DTD/sodipodi-0.dtd"
   xmlns="http://www.w3.org/2000/svg"
   xmlns:svg="http://www.w3.org/2000/svg">
  <defs
     id="defs1" />
  <sodipodi:namedview
     id="namedview1"
     pagecolor="#ffffff"
     bordercolor="#000000"
     borderopacity="0.25"
     inkscape:showpageshadow="2"
     inkscape:pageopacity="0.0"
     inkscape:pagecheckerboard="0"
     inkscape:deskcolor="#d1d1d1"
     inkscape:zoom="47.9"
     inkscape:cx="10.229645"
     inkscape:cy="10"
     inkscape:window-width="1920"
     inkscape:window-height="1202"
     inkscape:window-x="-8"
     inkscape:window-y="-8"
     inkscape:window-maximized="1"
     inkscape:current-layer="svg1" />
  <path
     d="m 950.85083,102.40013 c 40.30809,-0.0755 73.05097,33.25239 73.14917,74.45615 v 670.28747 c -0.098,41.20375 -32.84109,74.53159 -73.14917,74.45612 H 365.70158 c -40.3081,0.0755 -73.05095,-33.25235 -73.14922,-74.45612 V 176.85628 c 0.0982,-41.20378 32.84111,-74.53165 73.14922,-74.45615 z m -763.4143,69.81403 c 22.70609,0 56.31148,23.02708 56.1026,46.14577 l -5.34447,591.51023 c -0.20929,23.1642 -28.05204,41.87022 -50.75813,41.87022 -22.67079,0.0503 -63.53573,-16.55786 -63.58485,-39.73243 l 3.20668,-595.74028 c 0.12469,-23.16483 37.62756,-44.00801 60.37817,-44.00801 z m 729.70279,62.07212 -508.06167,-4.27558 -5.34446,581.08093 512.33724,3.20668 z M 41.138088,246.67032 c 22.706089,0 41.13809,18.75056 41.13809,41.8702 v 446.82797 c 0,23.11963 -18.432001,41.87021 -41.13809,41.87021 C 18.501957,777.28911 0.09815077,758.5985 0,735.45951 V 288.63154 C 0,265.51191 18.432001,246.76133 41.138088,246.76133 Z M 569.61116,327.04291 807.35725,471.3131 c 26.3252,15.91055 26.85734,54.65615 0.97948,71.31589 L 570.59063,696.27445 C 543.256,714.00208 507.52715,694.00333 507.41428,660.91234 V 362.99668 c 0.10886,-32.58985 34.87449,-52.67223 62.2414,-35.95377 z m 20.12382,109.68175 v 147.95658 l 118.02714,-76.32211 z"
     fill="#cc0000"
     p-id="3451"
     id="path1"
     style="stroke-width:1.01871"
     sodipodi:nodetypes="ccccccccccssccsccccccccssccscccccccccccccc" />
</svg>
