<?xml version="1.0" encoding="UTF-8" standalone="no"?>
<svg
   t="1767097127696"
   class="icon"
   viewBox="0 0 1024 1024"
   version="1.1"
   p-id="5003"
   width="16"
   height="16"
   id="svg1"
   sodipodi:docname="add-below.svg"
   inkscape:version="1.4 (86a8ad7, 2024-10-11)"
   xmlns:inkscape="http://www.inkscape.org/namespaces/inkscape"
   xmlns:sodipodi="http://sodipodi.sourceforge.net/DTD/sodipodi-0.dtd"
   xmlns="http://www.w3.org/2000/svg"
   xmlns:svg="http://www.w3.org/2000/svg">
  <defs
     id="defs1" />
  <sodipodi:namedview
     id="namedview1"
     pagecolor="#ffffff"
     bordercolor="#000000"
     borderopacity="0.25"
     inkscape:showpageshadow="2"
     inkscape:pageopacity="0.0"
     inkscape:pagecheckerboard="0"
     inkscape:deskcolor="#d1d1d1"
     inkscape:zoom="59.875"
     inkscape:cx="8"
     inkscape:cy="8"
     inkscape:window-width="1258"
     inkscape:window-height="1186"
     inkscape:window-x="650"
     inkscape:window-y="3"
     inkscape:window-maximized="0"
     inkscape:current-layer="svg1" />
  <path
     d="m 169.53113,408.02273 h 683.34272 a 41.531074,41.530796 0 0 1 0,83.00251 H 169.53113 a 40.644921,40.644649 0 0 1 -41.53107,-40.70372 v -0.41354 c 0,-22.44908 18.60923,-41.88525 41.53107,-41.88525 z m 0,-280.02273 h 683.34272 a 41.531074,41.530796 0 0 1 0,83.00251 H 169.53113 a 41.531074,41.530796 0 0 1 0,-83.00251 z M 415.8228,771.46151 H 169.47205 a 41.531074,41.530796 0 0 1 0,-83.00252 H 415.8228 a 41.531074,41.530796 0 0 1 0,83.00252 z m 437.87813,0 h -81.40799 v 82.64805 a 41.235689,41.235414 0 0 1 -40.76308,41.88528 41.235689,41.235414 0 0 1 -41.88554,-40.76283 v -83.7705 h -82.23507 a 41.531074,41.530796 0 0 1 0,-83.00252 h 83.00307 v -82.52991 a 41.235689,41.235414 0 0 1 40.76308,-41.94433 41.235689,41.235414 0 0 1 41.88554,40.7628 v 83.77052 h 81.40799 c 22.92181,0 41.53107,18.6091 41.53107,41.53079 v 0.35446 a 42.417228,42.416945 0 0 1 -42.29907,41.11726 z"
     fill="#333333"
     p-id="5004"
     id="path1"
     style="stroke-width:0.923074" />
</svg>
