<?xml version="1.0" standalone="no"?><!DOCTYPE svg PUBLIC "-//W3C//DTD SVG 1.1//EN" "http://www.w3.org/Graphics/SVG/1.1/DTD/svg11.dtd"><svg t="1736396121805" class="icon" viewBox="0 0 1024 1024" version="1.1" xmlns="http://www.w3.org/2000/svg" p-id="16064" width="16" height="16" xmlns:xlink="http://www.w3.org/1999/xlink"><path d="M725.328 392.528L947.76 236.8a21.328 21.328 0 0 1 33.568 17.488v515.424a21.328 21.328 0 0 1-33.568 17.488l-222.432-155.728v179.2a42.672 42.672 0 0 1-42.656 42.656H85.328a42.672 42.672 0 0 1-42.656-42.656V213.328a42.672 42.672 0 0 1 42.656-42.656h597.344a42.672 42.672 0 0 1 42.656 42.656v179.2zM128 256v512h512V256H128z m768 390.784l-170.672-119.472v-30.72L896 377.136v269.648z m-601.44-60.72L276.192 640h-62.848l87.776-236.928h81.184L469.328 640h-64.16l-18.096-53.92h-92.496z m258.736-182.992V640h-60.416V403.072h60.416z m-182.608 133.84l-27.312-81.568h-4.128l-27.904 81.568h59.344z" p-id="16065"></path></svg>