<?xml version="1.0" standalone="no"?><!DOCTYPE svg PUBLIC "-//W3C//DTD SVG 1.1//EN" "http://www.w3.org/Graphics/SVG/1.1/DTD/svg11.dtd"><svg t="1766655622740" class="icon" viewBox="0 0 1024 1024" version="1.1" xmlns="http://www.w3.org/2000/svg" p-id="22928" width="20" height="20" xmlns:xlink="http://www.w3.org/1999/xlink"><path d="M514.95154725-18.73480059c113.40155259 0 202.56934875 0 272.08605393 9.32067556 71.303168 9.55369245 127.8485997 29.59314489 172.27715319 74.09937066 44.42855348 44.42855348 64.46800592 100.97398518 74.09937066 172.27715319 9.32067555 69.51670518 9.32067555 158.60682903 9.32067556 272.08605393v5.9030945c0 113.40155259 0 202.56934875-9.32067556 272.08605393-9.55369245 71.303168-29.59314489 127.8485997-74.09937066 172.27715319-44.42855348 44.42855348-100.97398518 64.46800592-172.27715319 74.09937066-69.51670518 9.32067555-158.60682903 9.32067555-272.08605393 9.32067556h-5.9030945c-113.40155259 0-202.56934875 0-272.08605393-9.32067556-71.303168-9.55369245-127.8485997-29.59314489-172.27715319-74.09937066-44.50622578-44.42855348-64.46800592-100.97398518-74.09937066-172.27715319-9.32067555-69.51670518-9.32067555-158.60682903-9.32067556-272.08605393v-5.9030945c0-113.40155259 0-202.56934875 9.32067556-272.08605393 9.55369245-71.303168 29.59314489-127.8485997 74.09937066-172.27715319 44.42855348-44.50622578 100.97398518-64.46800592 172.27715319-74.09937066 69.51670518-9.32067555 158.60682903-9.32067555 272.08605393-9.32067556h5.9030945z m-19.41807407 454.46060562C484.8146963 434.3277037 472.62014578 434.3277037 462.28973037 434.3277037h-2.097152a51.80742163 51.80742163 0 1 0 0 103.53717097V745.01688889a51.80742163 51.80742163 0 1 0 103.61484326 0V535.84539497c0-10.33041541 0-22.68031052-1.47577363-33.24374282a77.05091792 77.05091792 0 0 0-21.28220918-45.51596563 77.05091792 77.05091792 0 0 0-45.51596564-21.35988149z m16.23350993-208.55011555A51.65207703 51.65207703 0 0 0 460.19257837 278.98311111c0 28.58340503 23.068672 51.80742163 51.57440474 51.80742164h0.46603378A51.65207703 51.65207703 0 0 0 563.80742163 278.98311111a51.65207703 51.65207703 0 0 0-51.57440474-51.80742163h-0.46603378z" fill="#ff0000" p-id="22929"></path></svg>