<?xml version="1.0" encoding="UTF-8" standalone="no"?>
<svg
   t="1733903797306"
   class="icon"
   viewBox="0 0 1024 1024"
   version="1.1"
   p-id="8840"
   width="16"
   height="16"
   id="svg2"
   sodipodi:docname="bot.svg"
   inkscape:version="1.4 (86a8ad7, 2024-10-11)"
   xmlns:inkscape="http://www.inkscape.org/namespaces/inkscape"
   xmlns:sodipodi="http://sodipodi.sourceforge.net/DTD/sodipodi-0.dtd"
   xmlns="http://www.w3.org/2000/svg"
   xmlns:svg="http://www.w3.org/2000/svg">
  <defs
     id="defs2" />
  <sodipodi:namedview
     id="namedview2"
     pagecolor="#ffffff"
     bordercolor="#000000"
     borderopacity="0.25"
     inkscape:showpageshadow="2"
     inkscape:pageopacity="0.0"
     inkscape:pagecheckerboard="0"
     inkscape:deskcolor="#d1d1d1"
     inkscape:zoom="29.9375"
     inkscape:cx="16"
     inkscape:cy="16"
     inkscape:window-width="1920"
     inkscape:window-height="1202"
     inkscape:window-x="-8"
     inkscape:window-y="-8"
     inkscape:window-maximized="1"
     inkscape:current-layer="svg2" />
  <path
     d="m 675.26387,386.31961 31.57428,-39.64416 c 4.47005,1.40582 9.22394,2.3899 14.19068,2.3899 C 746.99777,349.06535 768,328.2592 768,302.53268 768,276.80615 746.99777,256 721.02883,256 c -25.96896,0 -46.97119,20.80615 -46.97119,46.53268 0,8.85666 2.62528,17.01042 6.95344,24.03953 l -32.21285,40.41735 C 609.2062,341.75508 562.37695,326.85339 512,326.85339 c -50.30598,0 -97.2062,14.90169 -136.79823,40.13617 l -32.21285,-40.41735 c 4.32816,-7.02911 6.95344,-15.18287 6.95344,-24.03953 C 349.94236,276.80615 328.94013,256 302.97117,256 277.00222,256 256,276.80615 256,302.53268 c 0,25.72652 21.00222,46.53267 46.97117,46.53267 4.96674,0 9.72063,-0.98408 14.19068,-2.3899 l 31.57428,39.64416 c -55.27272,46.2515 -90.60753,115.20702 -90.60753,192.03515 v 172.14277 c 0,5.90447 0.49668,11.66832 0.9224,17.50247 h 505.898 c 0.42575,-5.83415 0.9224,-11.598 0.9224,-17.50247 V 578.35476 c 0,-76.82813 -35.33481,-145.78365 -90.60753,-192.03515 z m 47.89356,207.28829 c 0,33.73972 -27.81375,61.2938 -61.87139,61.2938 H 362.71396 c -34.05764,0 -61.87138,-27.55408 -61.87138,-61.2938 0,-33.7397 27.81374,-61.29379 61.87138,-61.29379 h 298.57208 c 34.05764,0 61.87139,27.55409 61.87139,61.29379 z"
     fill="#cc0000"
     p-id="8841"
     id="path1"
     style="stroke-width:0.706213" />
  <path
     d="m 393.43681,547.84844 c -14.19069,0 -25.82706,11.52773 -25.82706,25.58593 v 40.27678 c 0,14.05821 11.63637,25.58593 25.82706,25.58593 14.19068,0 25.82706,-11.52772 25.82706,-25.58593 v -40.27678 c 0.0709,-14.0582 -11.56543,-25.58593 -25.82706,-25.58593 z m 237.12638,-0.42176 c -14.19068,0 -25.82706,11.52775 -25.82706,25.58595 v 40.27677 c 0,14.05822 11.63638,25.58595 25.82706,25.58595 14.19069,0 25.82706,-11.52773 25.82706,-25.58595 v -40.27677 c 0,-14.0582 -11.63637,-25.58595 -25.82706,-25.58595 z"
     fill="#cc0000"
     p-id="8842"
     id="path2"
     style="stroke-width:0.706213" />
</svg>
