<?xml version="1.0" encoding="UTF-8" standalone="no"?>
<svg
   t="1742650786299"
   class="icon"
   viewBox="0 0 1024 1024"
   version="1.1"
   p-id="5154"
   width="16"
   height="16"
   id="svg1"
   sodipodi:docname="call.svg"
   inkscape:version="1.4 (86a8ad7, 2024-10-11)"
   xmlns:inkscape="http://www.inkscape.org/namespaces/inkscape"
   xmlns:sodipodi="http://sodipodi.sourceforge.net/DTD/sodipodi-0.dtd"
   xmlns="http://www.w3.org/2000/svg"
   xmlns:svg="http://www.w3.org/2000/svg">
  <defs
     id="defs1" />
  <sodipodi:namedview
     id="namedview1"
     pagecolor="#ffffff"
     bordercolor="#000000"
     borderopacity="0.25"
     inkscape:showpageshadow="2"
     inkscape:pageopacity="0.0"
     inkscape:pagecheckerboard="0"
     inkscape:deskcolor="#d1d1d1"
     inkscape:zoom="59.875"
     inkscape:cx="8"
     inkscape:cy="8"
     inkscape:window-width="1920"
     inkscape:window-height="1202"
     inkscape:window-x="-8"
     inkscape:window-y="-8"
     inkscape:window-maximized="1"
     inkscape:current-layer="svg1" />
  <path
     d="m 645.43646,247.97101 c 0.97062,-2.91205 24.78794,-68.54509 59.58066,-121.70862 12.91661,-20.30962 35.76333,-54.134234 69.43612,-60.854324 22.92138,-4.85336 49.72521,2.91209 80.48616,22.17644 a 231.82702,231.84365 0 0 1 98.33054,139.180834 c 5.97292,24.11772 7.98883,51.14747 5.97292,78.2519 a 337.77309,337.79733 0 0 1 -18.88959,89.82542 C 901.75274,515.58056 839.11094,616.08348 736.74867,721.43981 560.99318,901.09064 384.19242,945.59268 350.44497,953.28347 194.5497,988.07868 103.16281,876.97293 93.232708,864.42874 c -13.88722,-17.39762 -22.84672,-33.82454 -26.8785,-49.28079 -1.94122,-7.76546 -2.98649,-15.45624 -1.94122,-22.25101 1.04527,-15.45624 6.94361,-36.73659 33.74745,-56.00088 34.792712,-26.13375 86.459152,-56.00089 142.082702,-81.16395 57.56478,-26.13376 83.398,2.91205 107.21532,30.91249 l 1.04529,0.97068 c 0,0 38.67517,51.14747 44.64816,59.88361 a 22.025433,22.027014 0 0 0 28.81972,5.82409 A 937.76086,937.82813 0 0 0 610.56907,602.5686 1016.2311,1016.3041 0 0 0 755.56362,415.15231 c 2.01589,-4.85341 3.95711,-9.70682 2.01589,-15.45625 v -1.94136 a 19.038934,19.040301 0 0 0 -11.946,-12.5442 362.11306,362.13905 0 0 1 -49.65055,-26.13374 c -32.77684,-21.20567 -50.62117,-41.51532 -55.62355,-64.73702 -1.94122,-6.72011 -1.94122,-12.54419 -1.94122,-18.29362 0,-5.82409 1.94122,-16.42692 6.9436,-28.07511 z"
     p-id="5155"
     fill="#ffffff"
     id="path1"
     style="fill:#ffffff;stroke-width:0.947893" />
</svg>
