<?xml version="1.0" encoding="UTF-8" standalone="no"?>
<svg
   t="1770777893497"
   class="icon"
   viewBox="0 0 1024 1024"
   version="1.1"
   p-id="4866"
   width="16"
   height="16"
   id="svg1"
   sodipodi:docname="camera-template.svg"
   inkscape:version="1.4 (86a8ad7, 2024-10-11)"
   xmlns:inkscape="http://www.inkscape.org/namespaces/inkscape"
   xmlns:sodipodi="http://sodipodi.sourceforge.net/DTD/sodipodi-0.dtd"
   xmlns="http://www.w3.org/2000/svg"
   xmlns:svg="http://www.w3.org/2000/svg">
  <defs
     id="defs1" />
  <sodipodi:namedview
     id="namedview1"
     pagecolor="#ffffff"
     bordercolor="#000000"
     borderopacity="0.25"
     inkscape:showpageshadow="2"
     inkscape:pageopacity="0.0"
     inkscape:pagecheckerboard="0"
     inkscape:deskcolor="#d1d1d1"
     inkscape:zoom="45.254834"
     inkscape:cx="9.4686017"
     inkscape:cy="5.4800776"
     inkscape:window-width="1920"
     inkscape:window-height="1202"
     inkscape:window-x="-8"
     inkscape:window-y="-8"
     inkscape:window-maximized="1"
     inkscape:current-layer="svg1"
     showgrid="true">
    <inkscape:grid
       id="grid1"
       units="px"
       originx="0"
       originy="0"
       spacingx="64"
       spacingy="64"
       empcolor="#0099e5"
       empopacity="0.30196078"
       color="#0099e5"
       opacity="0.14901961"
       empspacing="5"
       enabled="true"
       visible="true" />
  </sodipodi:namedview>
  <path
     d="m 955.015,260.96776 c -25.5499,-25.6 -55.6562,-37.14716 -90.407,-37.14716 H 753.2065 L 727.6566,156.41889 C 720.6884,140.12799 709.0748,126.16435 692.9048,114.61818 676.6458,102.98182 658.153,96 641.894,96 H 386.7519 c -18.5817,0 -34.7517,6.98182 -51.0098,18.61818 -16.25903,11.63637 -27.87263,25.6 -34.75176,41.80071 L 273.11771,223.8206 H 159.4825 c -34.75177,0 -64.94614,11.63636 -90.40703,37.14716 C 43.52457,286.56776 32,316.7331 32,351.64219 V 800.1794 c 0,34.81989 11.6136,65.07443 37.07449,90.67443 C 94.6244,916.45383 124.73073,928 159.48151,928 H 864.518 c 34.7518,0 64.9461,-11.63636 90.406,-37.14617 25.5509,-25.6 37.0755,-55.76534 37.0755,-90.67443 V 351.64219 c 0.089,-34.90909 -11.4355,-65.07443 -36.9855,-90.67443 z"
     p-id="9916"
     fill="#333333"
     id="path1"
     style="stroke-width:0.990202"
     sodipodi:nodetypes="cscccsscccscsscsscsccc" />
  <path
     d="m 365.42644,370.24293 q 12.90682,0 21.89549,8.7582 8.98869,8.7582 8.98869,21.66502 V 424.175 q 0,12.90683 -8.98869,21.8955 -8.98867,8.98869 -21.89549,8.98869 h -24.43077 q -12.44586,0 -21.43455,-8.98869 -8.98868,-8.98867 -8.98868,-21.8955 v -23.50885 q 0,-12.90682 8.98868,-21.66502 8.98869,-8.7582 21.43455,-8.7582 z m 316.21712,0 q 12.44586,0 21.43455,8.7582 8.98868,8.7582 8.98868,21.66502 V 424.175 q 0,12.90683 -8.98868,21.8955 -8.98869,8.98869 -21.43455,8.98869 H 484.81453 q -12.90682,0 -21.8955,-8.98869 -8.98867,-8.98867 -8.98867,-21.8955 v -23.50885 q 0,-12.90682 8.98867,-21.66502 8.98868,-8.7582 21.8955,-8.7582 z M 365.42644,513.60084 q 12.90682,0 21.89549,8.98866 8.98869,8.98869 8.98869,21.89552 v 23.50886 q 0,12.44586 -8.98869,21.43453 -8.98867,8.98867 -21.89549,8.98867 h -24.43077 q -12.44586,0 -21.43455,-8.98867 -8.98868,-8.98867 -8.98868,-21.43453 v -23.50886 q 0,-12.90683 8.98868,-21.89552 8.98869,-8.98866 21.43455,-8.98866 z m 316.21712,0 q 12.44586,0 21.43455,8.98866 8.98868,8.98869 8.98868,21.89552 v 23.50886 q 0,12.44586 -8.98868,21.43453 -8.98869,8.98867 -21.43455,8.98867 H 484.81453 q -12.90682,0 -21.8955,-8.98867 -8.98867,-8.98867 -8.98867,-21.43453 v -23.50886 q 0,-12.90683 8.98867,-21.89552 8.98868,-8.98866 21.8955,-8.98866 z M 365.42644,657.4197 q 12.90682,0 21.89549,8.98868 8.98869,8.98869 8.98869,21.43454 v 23.50886 q 0,12.90682 -8.98869,21.8955 -8.98867,8.98868 -21.89549,8.98868 h -24.43077 q -12.44586,0 -21.43455,-8.98868 -8.98868,-8.98868 -8.98868,-21.8955 v -23.50886 q 0,-12.44585 8.98868,-21.43454 8.98869,-8.98868 21.43455,-8.98868 z m 316.21712,0 q 12.44586,0 21.43455,8.98868 8.98868,8.98869 8.98868,21.43454 v 23.50886 q 0,12.90682 -8.98868,21.8955 -8.98869,8.98868 -21.43455,8.98868 H 484.81453 q -12.90682,0 -21.8955,-8.98868 -8.98867,-8.98868 -8.98867,-21.8955 v -23.50886 q 0,-12.44585 8.98867,-21.43454 8.98868,-8.98868 21.8955,-8.98868 z"
     p-id="26927"
     fill="#333333"
     id="path1-4"
     style="fill:#ffffff;fill-opacity:1;stroke-width:0.450154" />
</svg>
