<?xml version="1.0" encoding="UTF-8" standalone="no"?>
<svg
   t="1770777893497"
   class="icon"
   viewBox="0 0 1024 1024"
   version="1.1"
   p-id="4866"
   width="16"
   height="16"
   id="svg1"
   xmlns:sodipodi="http://sodipodi.sourceforge.net/DTD/sodipodi-0.dtd"
   xmlns="http://www.w3.org/2000/svg"
   xmlns:svg="http://www.w3.org/2000/svg">
  <defs
     id="defs1" />
  <path
     d="m 955.015,260.96776 c -25.5499,-25.6 -55.6562,-37.14716 -90.407,-37.14716 H 753.2065 L 727.6566,156.41889 C 720.6884,140.12799 709.0748,126.16435 692.9048,114.61818 676.6458,102.98182 658.153,96 641.894,96 H 386.7519 c -18.5817,0 -34.7517,6.98182 -51.0098,18.61818 -16.25903,11.63637 -27.87263,25.6 -34.75176,41.80071 L 273.11771,223.8206 H 159.4825 c -34.75177,0 -64.94614,11.63636 -90.40703,37.14716 C 43.52457,286.56776 32,316.7331 32,351.64219 V 800.1794 c 0,34.81989 11.6136,65.07443 37.07449,90.67443 C 94.6244,916.45383 124.73073,928 159.48151,928 H 864.518 c 34.7518,0 64.9461,-11.63636 90.406,-37.14617 25.5509,-25.6 37.0755,-55.76534 37.0755,-90.67443 V 351.64219 c 0.089,-34.90909 -11.4355,-65.07443 -36.9855,-90.67443 z"
     p-id="9916"
     fill="#333333"
     id="path1"
     style="stroke-width:0.990202"
     sodipodi:nodetypes="cscccsscccscsscsscsccc" />
  <path
     d="m 311.58034,666.69813 98.03343,110.98836 0.42507,0.431 c 5.30445,6.0343 12.79973,9.4825 20.77067,9.6981 7.97095,0.2154 15.77103,-2.8017 21.66722,-8.405 12.23233,-11.8531 13.14377,-31.0337 1.89429,-43.5333 l -52.41579,-59.0501 h 294.81955 c 16.5944,0 30.14656,-13.79275 30.3817,-30.81815 0.23513,-17.0254 -12.93607,-30.81813 -29.53047,-30.81813 H 334.27385 c -26.28941,-0.21551 -40.31011,31.89569 -22.69351,51.50722 M 721.51008,477.47914 623.47665,366.49078 c -5.30741,-5.81881 -12.5842,-9.4825 -20.55514,-9.69801 -7.97095,-0.21551 -15.76805,2.58613 -21.44576,7.97392 -12.44189,11.4221 -13.57479,31.03364 -2.75634,43.5333 l 52.4128,59.26563 H 336.31266 c -16.59438,-1e-5 -30.14658,13.79272 -30.38171,30.81813 -0.23513,17.02539 13.1516,30.81812 29.74598,30.81812 H 699.0291 c 26.07688,0 40.0946,-31.89568 22.48098,-51.72273"
     p-id="36149"
     fill="#333333"
     id="path1-2"
     style="fill:#ffffff;fill-opacity:1;stroke-width:0.420943" />
</svg>
