<?xml version="1.0" encoding="UTF-8" standalone="no"?>
<svg
   t="1770777893497"
   class="icon"
   viewBox="0 0 1024 1024"
   version="1.1"
   p-id="4866"
   width="16"
   height="16"
   id="svg1"
   xmlns:sodipodi="http://sodipodi.sourceforge.net/DTD/sodipodi-0.dtd"
   xmlns="http://www.w3.org/2000/svg"
   xmlns:svg="http://www.w3.org/2000/svg">
  <defs
     id="defs1" />
  <path
     d="m 955.015,260.96776 c -25.5499,-25.6 -55.6562,-37.14716 -90.407,-37.14716 H 753.2065 L 727.6566,156.41889 C 720.6884,140.12799 709.0748,126.16435 692.9048,114.61818 676.6458,102.98182 658.153,96 641.894,96 H 386.7519 c -18.5817,0 -34.7517,6.98182 -51.0098,18.61818 -16.25903,11.63637 -27.87263,25.6 -34.75176,41.80071 L 273.11771,223.8206 H 159.4825 c -34.75177,0 -64.94614,11.63636 -90.40703,37.14716 C 43.52457,286.56776 32,316.7331 32,351.64219 V 800.1794 c 0,34.81989 11.6136,65.07443 37.07449,90.67443 C 94.6244,916.45383 124.73073,928 159.48151,928 H 864.518 c 34.7518,0 64.9461,-11.63636 90.406,-37.14617 25.5509,-25.6 37.0755,-55.76534 37.0755,-90.67443 V 351.64219 c 0.089,-34.90909 -11.4355,-65.07443 -36.9855,-90.67443 z"
     p-id="9916"
     fill="#333333"
     id="path1"
     style="stroke-width:0.990202"
     sodipodi:nodetypes="cscccsscccscsscsscsccc" />
  <path
     d="m 508.16664,562.91169 m -161.98458,0 a 161.98454,164.15826 0 1 0 323.96908,0 161.98454,164.15826 0 1 0 -323.96908,0 z"
     p-id="37248"
     id="path1-4"
fill="#ffffff"
     style="stroke-width:0.414418" />
  <path
     d="m 718.94494,562.91169 c 0,117.96705 -94.3675,213.60094 -210.7725,213.60094 -116.40497,0 -210.77251,-95.63389 -210.77251,-213.60094 0,-117.96705 94.36754,-213.60094 210.77251,-213.60094 116.405,0 210.7725,95.63389 210.7725,213.60094 z m -395.30969,0 c 0,103.28199 82.62283,187.01355 184.53719,187.01355 101.9144,0 184.5372,-83.73156 184.5372,-187.01355 0,-103.28199 -82.6228,-187.01355 -184.5372,-187.01355 -101.91436,0 -184.53719,83.73156 -184.53719,187.01355 z"
     p-id="37249"
fill="#ffffff"
     id="path2"
     style="stroke-width:0.414418" />
</svg>
