<?xml version="1.0" encoding="UTF-8" standalone="no"?>
<svg
   t="1770777893497"
   class="icon"
   viewBox="0 0 1024 1024"
   version="1.1"
   p-id="4866"
   width="16"
   height="16"
   id="svg1"
   xmlns:sodipodi="http://sodipodi.sourceforge.net/DTD/sodipodi-0.dtd"
   xmlns="http://www.w3.org/2000/svg"
   xmlns:svg="http://www.w3.org/2000/svg">
  <defs
     id="defs1" />
  <path
     d="m 955.015,260.96776 c -25.5499,-25.6 -55.6562,-37.14716 -90.407,-37.14716 H 753.2065 L 727.6566,156.41889 C 720.6884,140.12799 709.0748,126.16435 692.9048,114.61818 676.6458,102.98182 658.153,96 641.894,96 H 386.7519 c -18.5817,0 -34.7517,6.98182 -51.0098,18.61818 -16.25903,11.63637 -27.87263,25.6 -34.75176,41.80071 L 273.11771,223.8206 H 159.4825 c -34.75177,0 -64.94614,11.63636 -90.40703,37.14716 C 43.52457,286.56776 32,316.7331 32,351.64219 V 800.1794 c 0,34.81989 11.6136,65.07443 37.07449,90.67443 C 94.6244,916.45383 124.73073,928 159.48151,928 H 864.518 c 34.7518,0 64.9461,-11.63636 90.406,-37.14617 25.5509,-25.6 37.0755,-55.76534 37.0755,-90.67443 V 351.64219 c 0.089,-34.90909 -11.4355,-65.07443 -36.9855,-90.67443 z"
     p-id="9916"
     fill="#333333"
     id="path1"
     style="stroke-width:0.990202"
     sodipodi:nodetypes="cscccsscccscsscsscsccc" />
  <path
     d="m 343.64092,378.4423 c 24.30103,0 43.97127,19.44412 43.97127,43.46579 v 291.03176 c 0,24.0055 -19.68662,43.46577 -43.97127,43.46577 -24.28464,0 -43.97126,-19.46027 -43.97126,-43.46577 V 421.90809 c 0,-24.02167 19.67024,-43.46579 43.97126,-43.46579 z m 344.12286,0 c 24.30102,0 43.97126,19.44412 43.97126,43.46579 v 291.03176 c 0.008,24.01058 -19.68146,43.47877 -43.97126,43.47877 -24.28979,0 -43.97851,-19.46819 -43.97125,-43.47877 V 421.90809 c 0,-24.02167 19.67023,-43.46579 43.97125,-43.46579 z M 511.11403,605.43029 c 24.65437,0.11273 44.44565,20.14898 43.97127,44.51566 0,22.92979 -19.67025,42.41588 -43.97127,42.41588 -24.301,0 -43.97124,-19.48609 -43.97124,-42.41588 0,-25.07156 19.67024,-44.51566 43.97124,-44.51566 z m 0,-145.55789 c 24.67135,0.11235 44.4697,20.17468 43.97127,44.55768 0,22.92978 -19.67025,42.41588 -43.97127,42.41588 -24.301,0 -43.97124,-19.4861 -43.97124,-42.41588 0,-25.07158 19.67024,-44.51568 43.97124,-44.51568 z"
     fill="#ffffff"
     p-id="65087"
     id="path2"
     style="stroke-width:0.989991"
     sodipodi:nodetypes="ssssssssscscssccsscccsscc" />
</svg>
