<?xml version="1.0" standalone="no"?><!DOCTYPE svg PUBLIC "-//W3C//DTD SVG 1.1//EN" "http://www.w3.org/Graphics/SVG/1.1/DTD/svg11.dtd"><svg t="1770358527794" class="icon" viewBox="0 0 1024 1024" version="1.1" xmlns="http://www.w3.org/2000/svg" p-id="47733" width="20" height="20" xmlns:xlink="http://www.w3.org/1999/xlink"><path d="M813.653333 210.346667a426.666667 426.666667 0 0 0-694.613333 469.333333c4.096 8.490667 5.418667 18.005333 3.84 27.306667L85.333333 887.466667a42.666667 42.666667 0 0 0 11.52 38.826666A42.666667 42.666667 0 0 0 128 938.666667h8.533333l182.613334-36.693334a53.76 53.76 0 0 1 27.306666 3.84 426.666667 426.666667 0 0 0 469.333334-694.613333l-2.133334-0.853333zM341.333333 554.666667a42.666667 42.666667 0 1 1 0-85.333334 42.666667 42.666667 0 0 1 0 85.333334z m170.666667 0a42.666667 42.666667 0 1 1 0-85.333334 42.666667 42.666667 0 0 1 0 85.333334z m170.666667 0a42.666667 42.666667 0 1 1 0-85.333334 42.666667 42.666667 0 0 1 0 85.333334z" fill="#f2f2f2" p-id="47734"></path></svg>