<?xml version="1.0" encoding="UTF-8" standalone="no"?>
<svg
   t="1742651360760"
   class="icon"
   viewBox="0 0 2341 1024"
   version="1.1"
   p-id="9546"
   width="16"
   height="16"
   id="svg1"
   sodipodi:docname="hangup.svg"
   inkscape:version="1.4 (86a8ad7, 2024-10-11)"
   xmlns:inkscape="http://www.inkscape.org/namespaces/inkscape"
   xmlns:sodipodi="http://sodipodi.sourceforge.net/DTD/sodipodi-0.dtd"
   xmlns="http://www.w3.org/2000/svg"
   xmlns:svg="http://www.w3.org/2000/svg">
  <defs
     id="defs1" />
  <sodipodi:namedview
     id="namedview1"
     pagecolor="#ffffff"
     bordercolor="#000000"
     borderopacity="0.25"
     inkscape:showpageshadow="2"
     inkscape:pageopacity="0.0"
     inkscape:pagecheckerboard="0"
     inkscape:deskcolor="#d1d1d1"
     inkscape:zoom="23.483981"
     inkscape:cx="15.585092"
     inkscape:cy="7.8351281"
     inkscape:window-width="1920"
     inkscape:window-height="1202"
     inkscape:window-x="-8"
     inkscape:window-y="-8"
     inkscape:window-maximized="1"
     inkscape:current-layer="svg1" />
  <path
     d="m 589.22864,789.39301 c -5.89791,2.5949 -136.49444,63.7198 -266.95054,90.8223 -49.28966,10.0914 -131.71994,26.9584 -189.71603,-13.4071 -39.459814,-27.6792 -65.298267,-77.7036 -78.357919,-152.6681 -3.791512,-19.0294 -33.140624,-185.9696 71.617449,-352.7656 28.78741,-45.6995 65.29827,-87.9391 108.69002,-125.5655 45.49814,-39.6447 99.42187,-74.9645 160.08606,-104.662 234.7929,-120.519797 473.79859,-175.301498 775.43442,-178.040598 518.4542,-4.6132 834.6944,194.907698 892.8309,234.984798 271.0229,180.059 231.9844,482.656 226.6482,516.5342 -6.4596,47.2853 -18.5363,84.1909 -36.9322,113.6001 a 158.1201,162.32696 0 0 1 -30.6129,36.0406 c -23.5917,20.6152 -65.4387,43.2487 -130.8774,33.734 -88.7495,-12.6863 -206.0055,-46.8528 -321.5764,-93.7056 -120.3454,-48.2944 -111.7794,-129.3138 -103.3538,-207.594 l 0.4213,-3.0274 27.3831,-156.2721 a 43.813029,44.978696 0 0 0 -31.8768,-51.466 1969.3395,2021.7347 0 0 0 -491.2114,-61.1249 1985.6289,2038.4576 0 0 0 -484.47101,61.1249 43.813029,44.978696 0 0 0 -25.83845,19.1736 l -1.82555,3.3157 a 43.532176,44.690371 0 0 0 -2.80852,35.7523 c 9.97027,29.1208 23.4512,72.5137 31.17465,114.1767 14.46392,78.8569 8.70644,137.6752 -17.69372,179.7706 a 135.93273,139.54929 0 0 1 -54.34501,49.4477 c 18.25543,-10.3797 -1.40426,0.7208 -25.83845,11.8214 z"
     fill="#ffffff"
     p-id="9547"
     id="path1"
     style="fill:#ffffff;fill-opacity:1;stroke-width:1.63008" />
</svg>
