<?xml version="1.0" standalone="no"?><!DOCTYPE svg PUBLIC "-//W3C//DTD SVG 1.1//EN" "http://www.w3.org/Graphics/SVG/1.1/DTD/svg11.dtd"><svg t="1742277176015" class="icon" viewBox="0 0 1024 1024" version="1.1" xmlns="http://www.w3.org/2000/svg" p-id="51273" width="16" height="16" xmlns:xlink="http://www.w3.org/1999/xlink"><path d="M956.5 835c-10.8-30.7-23.8-61-36.5-74.5-23.5-25-158.6-96.6-218.3-127.7-15.7-8.2-35.1-2.2-43.5 13.4L590 772.4c-9.6 17.8-36.4 12.9-39.1-7.1-0.6-4.3 0.2-8.7 2.2-12.5l15.1-28.7c3.9-7.5 2.9-16.7-2.5-23.2l-28.8-34.2c-6.2-7.3-15.3-11.5-24.8-11.5-9.6 0-18.7 4.2-24.8 11.6L458.5 701c-5.5 6.5-6.5 15.7-2.5 23.2l15.1 28.7c2 3.8 2.8 8.2 2.2 12.5-2.7 20.1-29.5 24.9-39.1 7.1L366 646.3c-8.4-15.6-27.8-21.6-43.5-13.4-59.7 31-194.8 102.7-218.3 127.7C91.4 774 78.4 804.3 67.5 835c-14.9 42.3 16.3 86.7 61.2 86.7h766.6c44.9 0.1 76.1-44.3 61.2-86.7M485.3 320.5c-1.7-4.3-2.5-9.3-2.5-15.2-0.5 0-0.9 0.4-1 0.8-0.8 4.8-1.6 9.5-3.2 13.5L458.8 379c-0.2 0.6 0.3 1.3 0.9 1.3h43.9c0.4 0 0.8 0.3 0.9 0.7v0.1-0.8h-0.3l-18.9-59.8z" fill="#2c2c2c" p-id="51274"></path><path d="M513.9 102.2c-142.3 0-227.7 62.6-227.7 227.7 0 162.1 130.9 292.2 227.7 292.2 96.8 0 223.9-129 223.9-292.2s-81.6-227.7-223.9-227.7m51.6 347.1h-38.3c-0.4 0-0.8-0.3-0.9-0.7l-12.2-38.2c-0.1-0.4-0.5-0.7-0.9-0.7h-61.7c-0.4 0-0.8 0.3-0.9 0.7l-12.2 38.2c-0.1 0.4-0.5 0.7-0.9 0.7h-38.3c-0.7 0-1.2-0.7-0.9-1.3l63.2-172.3c0.1-0.4 0.5-0.7 0.9-0.7h42.4c0.4 0 0.8 0.3 0.9 0.7L566.5 448c0.2 0.6-0.3 1.3-1 1.3m60.4-18.5c0 10.2-8.3 18.5-18.5 18.5s-18.5-8.3-18.5-18.5V293.6c0-10.2 8.3-18.5 18.5-18.5s18.5 8.3 18.5 18.5v137.2z" fill="#2c2c2c" p-id="51275"></path></svg>