<?xml version="1.0" encoding="UTF-8" standalone="no"?>
<svg
   t="1743997689808"
   class="icon"
   viewBox="0 0 1024 1024"
   version="1.1"
   p-id="7478"
   width="16"
   height="16"
   id="svg3"
   sodipodi:docname="meetingrecord.svg"
   inkscape:version="1.4 (86a8ad7, 2024-10-11)"
   xmlns:inkscape="http://www.inkscape.org/namespaces/inkscape"
   xmlns:sodipodi="http://sodipodi.sourceforge.net/DTD/sodipodi-0.dtd"
   xmlns="http://www.w3.org/2000/svg"
   xmlns:svg="http://www.w3.org/2000/svg">
  <defs
     id="defs3" />
  <sodipodi:namedview
     id="namedview3"
     pagecolor="#ffffff"
     bordercolor="#000000"
     borderopacity="0.25"
     inkscape:showpageshadow="2"
     inkscape:pageopacity="0.0"
     inkscape:pagecheckerboard="0"
     inkscape:deskcolor="#d1d1d1"
     inkscape:zoom="59.875"
     inkscape:cx="7.9916493"
     inkscape:cy="8"
     inkscape:window-width="1920"
     inkscape:window-height="1202"
     inkscape:window-x="-8"
     inkscape:window-y="-8"
     inkscape:window-maximized="1"
     inkscape:current-layer="svg3" />
  <path
     d="m 784.448,316.032 h -154.24 c -10.432,0 -18.88,-13.12001 -18.88,-29.184 0,-16.128 8.448,-29.248 18.88,-29.248 h 154.24 c 10.368,0 18.88,13.12 18.88,29.248 0,16 -8.512,29.184 -18.88,29.184 z m 0,155.84 h -154.24 c -10.432,0 -18.88,-13.184 -18.88,-29.248 0,-16 8.448,-29.184 18.88,-29.184 h 154.24 c 10.368,0 18.88,13.12 18.88,29.184 0,16.064 -8.512,29.248 -18.88,29.248 z"
     fill="#000000"
     p-id="7479"
     id="path1"
     style="stroke-width:0.875" />
  <path
     d="M 880.896,64 H 195.008 c -43.712,0 -79.168,42.88 -79.168,95.936 v 2.048 H 102.784 A 39.04,39.04 0 0 0 64,200.96 v 331.136 a 39.04,39.04 0 0 0 38.784,38.912 h 13.12 v 293.12 c 0,52.992 35.392,95.872 79.104,95.872 H 880.896 C 924.608,960 960,917.12 960,864.064 V 160.00001 C 960,106.816 924.608,64 880.896,64 Z m 14.08,324.288 v 475.264 c 0,17.536 -11.712,31.68 -26.24,31.68 H 208 c -14.528,0 -26.176,-14.08 -26.176,-31.68 V 570.56 h 236.224 a 39.04,39.04 0 0 0 38.848,-38.976 V 200.448 a 39.04,39.04 0 0 0 -38.848,-38.976 h -236.16 v -1.47199 c 0,-17.53601 11.648,-31.68001 26.24,-31.68001 h 660.608 c 14.528,0 26.24,14.144 26.24,31.68001 V 388.352 Z M 125.248,217.664 H 398.976 V 512 H 125.312 V 217.6 Z"
     fill="#000000"
     p-id="7480"
     id="path2"
     style="stroke-width:0.875" />
  <path
     d="m 279.36,260.352 c 23.808,0 41.28,5.824 52.928,17.024 11.648,11.2 17.472,27.264 17.472,48.256 0,21.376 -6.336,37.952 -19.456,50.112 -12.608,12.16 -32.512,18.048 -58.688,18.048 h -35.84 V 472.64 H 170.688 V 260.352 h 108.608 z m -24.256,43.328 h -18.432 v 47.232 h 16 c 12.16,0 21.376,-1.92 26.24,-6.336 a 22.592,22.592 0 0 0 7.744,-17.024 24.384,24.384 0 0 0 -6.784,-17.024 c -4.352,-4.864 -12.608,-6.848 -24.768,-6.848 z M 663.68,768.64 H 592 L 575.04,832 h -56 L 584,608 h 88 l 64.96,224 h -56.32 z m -10.24,-38.4 -25.28,-93.76 h -0.64 l -25.28,93.76 z M 764.16,608 h 52.8 v 224 h -52.8 z"
     fill="#000000"
     p-id="7481"
     id="path3"
     style="stroke-width:0.875" />
</svg>
