<?xml version="1.0" encoding="UTF-8" standalone="no"?>
<svg
   t="1767108269429"
   class="icon"
   viewBox="0 0 1024 1024"
   version="1.1"
   p-id="22107"
   width="16"
   height="16"
   id="svg2"
   sodipodi:docname="redo.svg"
   inkscape:version="1.4 (86a8ad7, 2024-10-11)"
   xmlns:inkscape="http://www.inkscape.org/namespaces/inkscape"
   xmlns:sodipodi="http://sodipodi.sourceforge.net/DTD/sodipodi-0.dtd"
   xmlns="http://www.w3.org/2000/svg"
   xmlns:svg="http://www.w3.org/2000/svg">
  <defs
     id="defs2" />
  <sodipodi:namedview
     id="namedview2"
     pagecolor="#ffffff"
     bordercolor="#000000"
     borderopacity="0.25"
     inkscape:showpageshadow="2"
     inkscape:pageopacity="0.0"
     inkscape:pagecheckerboard="0"
     inkscape:deskcolor="#d1d1d1"
     inkscape:zoom="59.875"
     inkscape:cx="8"
     inkscape:cy="8"
     inkscape:window-width="1258"
     inkscape:window-height="1186"
     inkscape:window-x="650"
     inkscape:window-y="3"
     inkscape:window-maximized="0"
     inkscape:current-layer="svg2" />
  <path
     d="M 164.91446,426.75602 V 153.11655 c 0,0 -1.18262,-54.369262 58.35273,-23.74173 l 77.51693,70.43618 c 0,0 170.40823,-144.267422 370.92012,-88.98961 0,0 238.27585,59.39016 155.89397,296.6161 A 205.26935,182.5937 0 0 1 662.53875,520.14492 c 0,0 -21.71765,3.27555 0.83322,-17.04717 0,0 137.6705,-128.6548 29.1898,-212.07358 0,0 -71.87248,-63.12 -187.55655,13.34125 0,0 -25.21183,17.07109 -48.38089,34.11828 l 85.87607,76.38954 c 0,0 36.17815,32.34898 -0.83322,54.13015 0,0 0.37629,6.14464 -80.84984,3.70591 H 219.04732 a 46.741311,41.577899 0 0 1 -54.13286,-45.95328 z"
     p-id="22108"
     fill="#333333"
     id="path1"
     style="stroke-width:1.18829" />
  <path
     d="M 442.46995,960 A 24.217827,26.391246 0 0 1 418.25212,933.60876 V 895.2095 H 314.11546 v 16.78481 a 24.217827,26.391246 0 0 1 -24.21782,26.39125 H 171.56933 A 24.217827,26.391246 0 0 1 147.35151,911.99431 V 895.2095 H 91.505198 a 27.511452,29.980456 0 0 1 0,-59.9609 h 55.846312 v -24.43832 a 24.217827,26.391246 0 0 1 24.21782,-26.39124 H 289.8492 a 24.217827,26.391246 0 0 1 24.21783,26.39124 v 24.41191 h 104.13666 v -59.96091 a 24.217827,26.391246 0 0 1 24.21782,-26.39124 h 159.95875 a 24.217827,26.391246 0 0 1 24.21782,26.39124 v 59.96091 h 83.35777 v -24.41191 a 24.217827,26.391246 0 0 1 24.21783,-26.39124 h 118.25565 a 24.217827,26.391246 0 0 1 24.21782,26.39124 v 24.41191 h 55.84632 a 27.511459,29.980464 0 1 1 0,59.96092 h -55.79788 v 16.78483 a 24.217827,26.391246 0 0 1 -24.21783,26.39129 H 734.22212 A 24.217827,26.391246 0 0 1 710.00428,911.96794 V 895.2095 h -83.35776 v 38.39926 A 24.217827,26.391246 0 0 1 602.4287,960 Z"
     p-id="22109"
     fill="#333333"
     id="path2"
     style="stroke-width:1.18505" />
</svg>
