<?xml version="1.0" standalone="no"?><!DOCTYPE svg PUBLIC "-//W3C//DTD SVG 1.1//EN" "http://www.w3.org/Graphics/SVG/1.1/DTD/svg11.dtd"><svg t="1736748933158" class="icon" viewBox="0 0 1024 1024" version="1.1" xmlns="http://www.w3.org/2000/svg" p-id="4293" width="16" height="16" xmlns:xlink="http://www.w3.org/1999/xlink"><path d="M792.533333 742.613333l-76.373333-91.52V439.466667c0-105.386667-100.693333-303.36-194.986667-348.586667l-9.173333-4.266667-9.173333 4.266667c-94.293333 45.226667-195.2 243.2-195.2 348.586667v211.626666L234.666667 739.626667l-2.133334 2.986666a42.666667 42.666667 0 0 0 36.693334 64h96.853333a21.333333 21.333333 0 0 0 0-42.666666H268.8l81.493333-97.28V439.466667c0-94.08 89.6-260.266667 161.706667-305.066667 72.106667 44.8 161.493333 210.986667 161.493333 305.066667v227.2l81.493334 97.066666h-96a21.333333 21.333333 0 0 0 0 42.666667h96.853333a42.666667 42.666667 0 0 0 36.693333-64z" fill="#cc0000" p-id="4294"></path><path d="M512 313.386667a78.506667 78.506667 0 1 0 78.506667 78.506666A78.506667 78.506667 0 0 0 512 313.386667z m0 114.346666a35.84 35.84 0 1 1 35.84-35.84A35.84 35.84 0 0 1 512 427.733333zM462.933333 669.226667a21.333333 21.333333 0 0 0-21.333333 21.333333V917.333333a21.333333 21.333333 0 0 0 42.666667 0V690.56a21.333333 21.333333 0 0 0-21.333334-21.333333zM561.066667 706.986667a21.333333 21.333333 0 0 0-21.333334 21.333333v102.4a21.333333 21.333333 0 0 0 42.666667 0v-102.4a21.333333 21.333333 0 0 0-21.333333-21.333333z" fill="#cc0000" p-id="4295"></path></svg>