<?xml version="1.0" encoding="UTF-8" standalone="no"?>
<svg
   t="1736337942760"
   class="icon"
   viewBox="0 0 1024 1024"
   version="1.1"
   p-id="33199"
   width="64"
   height="64"
   id="svg2"
   sodipodi:docname="已创建信息资源.svg"
   inkscape:version="1.4 (86a8ad7, 2024-10-11)"
   xmlns:inkscape="http://www.inkscape.org/namespaces/inkscape"
   xmlns:sodipodi="http://sodipodi.sourceforge.net/DTD/sodipodi-0.dtd"
   xmlns="http://www.w3.org/2000/svg"
   xmlns:svg="http://www.w3.org/2000/svg">
  <defs
     id="defs2" />
  <sodipodi:namedview
     id="namedview2"
     pagecolor="#ffffff"
     bordercolor="#000000"
     borderopacity="0.25"
     inkscape:showpageshadow="2"
     inkscape:pageopacity="0.0"
     inkscape:pagecheckerboard="0"
     inkscape:deskcolor="#d1d1d1"
     inkscape:zoom="14.96875"
     inkscape:cx="32"
     inkscape:cy="32"
     inkscape:window-width="1920"
     inkscape:window-height="1202"
     inkscape:window-x="-8"
     inkscape:window-y="-8"
     inkscape:window-maximized="1"
     inkscape:current-layer="svg2" />
  <path
     d="m 512,512 m -400,0 a 400,400 0 1 0 800,0 400,400 0 1 0 -800,0 z"
     fill="#2170ff"
     p-id="33200"
     id="path1"
     style="stroke-width:0.78125" />
  <path
     d="M 412,332 V 712 H 312 V 332 Z m -20,120 h -60 v 20 h 60 z m 0,-60 h -60 v 20 h 60 z M 552,332 V 712 H 452 V 332 Z m -20,120 h -60 v 20 h 60 z m 0,-60 h -60 v 20 h 60 z m 138.98,-65.22 72.5,373 -98.16,19.1 -72.5,-373.02 z m 3.26,121.6 -58.9,11.46 3.8,19.64 58.92,-11.46 -3.82,-19.62 z m -11.44,-58.88 -58.9,11.44 3.8,19.64 58.9,-11.46 z"
     fill="#ffffff"
     p-id="33201"
     id="path2"
     style="stroke-width:0.78125" />
</svg>
